<svg xmlns="http://www.w3.org/2000/svg" viewBox="0 0 45 45"><g fill="#000" fill-rule="evenodd" stroke="#000" stroke-linecap="round" stroke-linejoin="round" stroke-width="1.5"><path d="M22.5 11.63V6M20 8h5" stroke-linejoin="miter"/><path d="M22.5 25s4.5-7.5 3-10.5c0 0-1.5-3-3-3-1.5 0-3 3-3 3 1.5 3 3 10.5 3 10.5" stroke-linecap="butt" stroke-linejoin="miter"/><path d="M22.5 34.5s-4.5-4.5-6-7.5c-1.5-3 .5-4.5 3-4.5 2.5 0 3 1.5 3 1.5s.5-1.5 3-1.5c2.5 0 4.5 1.5 3 4.5-1.5 3-6 7.5-6 7.5" stroke-linecap="butt"/><path d="M15.5 38.5h14"/></g></svg>