<svg xmlns="http://www.w3.org/2000/svg" viewBox="0 0 45 45"><g fill="none" fill-rule="evenodd" stroke="#000" stroke-linecap="round" stroke-linejoin="round" stroke-width="1.5"><path d="M22 10c10.5 1 16.5 8 16 29H15c-2 0-9-11.5-8-21 1-10 10-10.5 14-10.5h1.5z" fill="#fff"/><path d="M24 18c.38 2.91-5.55 7.37-8 9-3 2-2.82 4.34-5 4-1.04-.94 1.41-3.04 0-3-1 0-1.63 2.18-1 4 .38 1.14 2.1 2 4 2h4M25 18c-2.3-2.6-6-4-8-4-1.5 0-3 .5-3 2s1.5 2 3 2c2 0 4.3-1.3 6-3l-1-2z" stroke-linecap="butt"/><path d="M9.5 25.5a.5.5 0 1 1-1 0 .5.5 0 0 1 1 0z" fill="#000" stroke="#000"/></g></svg>