<svg xmlns="http://www.w3.org/2000/svg" viewBox="0 0 45 45"><g fill="none" fill-rule="evenodd" stroke="#000" stroke-linecap="round" stroke-linejoin="round" stroke-width="1.5"><path d="M9 36h27v-2H9v2z" fill="#fff"/><path d="M15 32s2 2 7.5 2 7.5-2 7.5-2v-4s-2-1-7.5-1-7.5 1-7.5 1v4z" fill="#fff"/><path d="M15 28s2-2 7.5-2 7.5 2 7.5 2v-4s-2 1-7.5 1-7.5-1-7.5-1v4z" stroke-linecap="butt"/><path d="M22.5 24s2.5-2 2.5-5 0-4-2.5-4-2.5 1-2.5 4 .5 5 2.5 5z" fill="#fff"/><path d="M20 18s.5-2 2.5-2 2.5 2 2.5 2zM22.5 14.5a2.5 2.5 0 0 1-2.5-2.5 2.5 2.5 0 0 1 2.5-2.5 2.5 2.5 0 0 1 2.5 2.5 2.5 2.5 0 0 1-2.5 2.5z" fill="#fff"/></g></svg>