<svg xmlns="http://www.w3.org/2000/svg" viewBox="0 0 45 45"><g fill="#fff" fill-rule="evenodd" stroke="#000" stroke-linecap="round" stroke-linejoin="round" stroke-width="1.5"><path d="M9 36h27v-2H9v2z"/><path d="M12 34s3-4 10.5-4 10.5 4 10.5 4v-4s-3-1.5-10.5-1.5S12 30 12 30v4z" stroke-linecap="butt"/><path d="M12 25s3-4 10.5-4 10.5 4 10.5 4v-4s-3-1.5-10.5-1.5S12 21 12 21v4z" stroke-linecap="butt"/><path d="M12 30V15.5h21V30" stroke-linecap="butt"/><path d="M12 15.5s3-4.5 10.5-4.5S33 15.5 33 15.5" stroke-linecap="butt"/><path d="M12 11a2.5 2.5 0 1 1-5 0 2.5 2.5 0 1 1 5 0zM22.5 11a2.5 2.5 0 1 1-5 0 2.5 2.5 0 1 1 5 0zM33 11a2.5 2.5 0 1 1-5 0 2.5 2.5 0 1 1 5 0zM4.5 22a2.5 2.5 0 1 1-5 0 2.5 2.5 0 1 1 5 0zM40.5 22a2.5 2.5 0 1 1-5 0 2.5 2.5 0 1 1 5 0z"/></g></svg>